<svg xmlns="http://www.w3.org/2000/svg" viewBox="0 0 24 24" fill="none" stroke="#f51de3" stroke-width="2" stroke-linecap="round" stroke-linejoin="round">
  <path d="M12.427 3.427A4 4 0 0 0 10.136 2.5a4 4 0 0 0-4.072 4.072c.927-1.291 2.4-2.291 4.072-2.291a4.008 4.008 0 0 1 2.291 1.146" />
  <path d="M12.427 20.573a4 4 0 0 1-2.291.927 4 4 0 0 1-4.072-4.072c.927 1.291 2.4 2.291 4.072 2.291a4.008 4.008 0 0 0 2.291-1.146" />
  <path d="M11.573 12.427a4 4 0 0 0-.927-2.291 4 4 0 0 0-4.072 4.072c1.291-.927 2.291-2.4 2.291-4.072a4.008 4.008 0 0 1 1.146 2.291" />
  <path d="M20.573 11.573a4 4 0 0 1-.927 2.291 4 4 0 0 1-4.072-4.072c1.291.927 2.291 2.4 2.291 4.072a4.008 4.008 0 0 0 1.146-2.291" />
</svg>
